<svg width="165" height="165" xmlns="http://www.w3.org/2000/svg">
 <defs>
  <clipPath id="clip-中国行政区划地图">
   <rect width="2000" height="2000" id="svg_1"/>
  </clipPath>
 </defs>
 <g>
  <title>Layer 1</title>
  <ellipse fill="#ffa70f" cx="82.58621" cy="81.55172" id="svg_2" rx="78.44828" ry="78.44828" stroke="#ffa811"/>
  <path fill="none" id="svg_3" d="m104.13793,42.06896c0,0 -0.101,-0.101 -0.34483,-0.34483c-0.24383,-0.24383 -0.69888,-0.2656 -1.03448,-0.34483c-0.75043,-0.17715 -0.99362,-1.1001 -2.06896,-1.72414c-0.6669,-0.38701 -1.40636,-0.61719 -2.4138,-1.03448c-0.71236,-0.29507 -1.43181,-0.42574 -2.06896,-0.68966c-0.45055,-0.18662 -1.04371,-0.26561 -1.37931,-0.34483c-0.75043,-0.17715 -1.03448,-0.34483 -1.37931,-0.34483c-0.34483,0 -0.97371,-0.5125 -1.72414,-0.68966c-0.67121,-0.15845 -1.04371,0.07922 -1.37931,0c-0.75043,-0.17715 -1.37931,-0.34483 -2.06897,-0.34483c-0.34483,0 -0.68965,0 -1.03448,0c-0.34483,0 -0.68965,0 -1.03448,0c-0.34483,0 -0.68966,0 -1.03448,0c-0.68966,0 -0.95495,0.10456 -1.37931,0.34483c-1.23721,0.7005 -2.12389,0.5554 -3.10345,1.03448c-1.11687,0.54624 -1.78828,0.58364 -2.4138,1.03448c-0.79121,0.57028 -1.09863,0.58364 -1.72414,1.03448c-0.39561,0.28514 -0.68966,0.68966 -1.37931,1.03448l-0.34483,0.34483l-0.34483,0.34483l-0.34483,0" stroke="#ffa811"/>
  <path fill="#ff7f00" opacity="undefined" d="m57.93102,70.34483l56.89656,0l0,10l-56.89656,0l0,-10z" id="svg_16" stroke="#ff7f00"/>
  <rect fill="#ff7f00" x="57.24137" y="93.7931" width="56.2069" height="10.34483" id="svg_17" stroke="#ff7f00"/>
  <rect fill="#ff7f00" x="80" y="69.31034" width="9.31034" height="56.89656" id="svg_18" stroke="#ff7f00"/>
  <rect transform="rotate(-40.4166 67.8631 56.1745)" fill="#ff7f00" x="63.29691" y="36.2334" width="9.13235" height="39.88224" id="svg_19" stroke="#ff7f00"/>
  <rect transform="rotate(38.8501 101.898 55.7531)" fill="#ff7f00" x="97.07025" y="35.42126" width="9.65517" height="40.66364" id="svg_20" stroke="#ff7f00"/>
  <path id="svg_22" d="m82.24138,159.99999c-43.34159,0 -78.44828,-35.02953 -78.44828,-78.27586c0,-43.24633 35.10669,-78.27586 78.44828,-78.27586c43.34159,0 78.44828,35.02953 78.44828,78.27586c0,43.24633 -35.10669,78.27586 -78.44828,78.27586z" opacity="undefined" stroke-width="5" stroke="#ff7f00" fill="none"/>
 </g>
</svg>